<svg id="Capa_1" enable-background="new 0 0 512 512" height="512" viewBox="0 0 512 512" width="512" xmlns="http://www.w3.org/2000/svg"><g><g><path d="m411.014 186.068-85.518-85.503c-4.277-4.292-5.566-10.737-3.252-16.348 2.314-5.581 7.734-9.229 13.799-9.258-.029-.249 48.896-12.085 77.988-40.942l20.889-21.182c17.109-17.139 46.963-17.065 63.896-.073 17.578 17.593 17.578 46.216 0 63.809-.03.015-.059.044-.059.073l-21.298 21.006c-28.359 28.623-40.166 76.157-41.133 80.229-.996 4.893-4.307 9.214-8.965 11.147-5.653 2.322-12.076 1.313-16.347-2.958zm77.197-120.102h.293z" fill="#ffe14d"/></g><path d="m411.014 186.068c4.27 4.27 10.693 5.279 16.348 2.959 4.658-1.934 7.969-6.255 8.965-11.147.967-4.072 12.773-51.606 41.133-80.229l21.299-21.006c0-.029.029-.059.059-.073 17.578-17.593 17.578-46.216 0-63.809l-130.559 130.557z" fill="#fb3"/><g><g><path d="m387.712 245.502c-3.838 0-7.676-1.465-10.605-4.395l-106.202-106.2c-2.813-2.827-4.395-6.65-4.395-10.649 0-3.984 1.611-7.808 4.453-10.62l44.337-44.478c5.859-5.859 15.352-5.859 21.211 0l105.909 105.907c5.83 5.815 5.859 15.249.088 21.108l-44.19 44.932c-2.93 2.931-6.768 4.395-10.606 4.395z" fill="#9df"/></g></g><path d="m377.107 241.108c2.93 2.93 6.768 4.395 10.605 4.395s7.676-1.465 10.605-4.395l44.19-44.932c5.771-5.859 5.742-15.293-.088-21.108l-52.954-52.954-65.46 65.894z" fill="#66b3ff"/><g><g><g><path d="m109.802 482.91-80.684-80.698c-30.645-30.645-41.66-88.184-10.518-119.326 22.676-22.676 40.693-28.975 56.602-34.512 15.439-5.391 28.77-10.049 48.398-29.678 20.332-20.347 29.824-41.118 39.023-61.216 8.32-18.208 16.934-37.031 32.988-53.086 11.514-11.704 26.982-18.237 43.506-18.311h.234c16.23 0 31.436 6.284 42.861 17.71l126.008 126.006c11.484 11.484 17.754 26.777 17.695 43.096-.059 16.479-6.563 31.934-18.311 43.521-16.055 16.055-34.863 24.639-53.057 32.959-20.098 9.185-40.869 18.677-61.23 39.023-19.629 19.629-24.287 32.974-29.678 48.413-5.537 15.894-11.836 33.911-34.512 56.587-31.091 31.092-88.64 20.196-119.325-10.488z" fill="#f0f7ff"/></g></g></g><path d="m109.802 482.91c30.685 30.685 88.235 41.58 119.326 10.488 22.676-22.676 28.975-40.693 34.512-56.587 5.391-15.439 10.049-28.784 29.678-48.413 20.361-20.347 41.133-29.839 61.23-39.023 18.193-8.32 37.002-16.904 53.057-32.959 11.748-11.587 18.252-27.041 18.311-43.521.059-16.318-6.211-31.611-17.695-43.096l-63.003-63.003-275.76 275.76z" fill="#dfe7f4"/><g id="Formula_1_"><g><g><path d="m313.415 219.809-42.422-42.422c-5.859-5.859-15.352-5.859-21.211 0l-42.411 42.415c-.004.004-.007.004-.011.007s-.004.007-.007.011l-42.393 42.396c-.007.007-.015.007-.022.015s-.007.015-.015.022l-84.829 84.836c-5.859 5.859-5.859 15.352 0 21.211l42.422 42.422c5.859 5.859 15.351 5.86 21.211 0 5.859-5.859 5.859-15.352 0-21.211l-31.816-31.816 21.209-21.213 10.607 10.607c5.859 5.859 15.351 5.86 21.211 0 5.859-5.859 5.859-15.352 0-21.211l-10.607-10.607 21.216-21.22 31.813 31.813c5.859 5.859 15.351 5.86 21.211 0 5.859-5.859 5.859-15.352 0-21.211l-31.813-31.813 21.209-21.213 10.604 10.604c5.859 5.859 15.351 5.86 21.211 0 5.859-5.859 5.859-15.352 0-21.211l-10.604-10.604 21.209-21.213 31.816 31.816c5.859 5.859 15.352 5.859 21.211 0s5.861-15.351.001-21.21z" fill="#9df"/></g></g></g><g><g fill="#66b3ff"><path d="m292.204 241.02c5.859 5.859 15.352 5.859 21.211 0s5.859-15.352 0-21.211l-10.605-10.605-21.211 21.211z"/><path d="m207.36 325.864c5.859 5.859 15.351 5.86 21.211 0 5.859-5.859 5.859-15.352 0-21.211l-10.605-10.605-21.211 21.211z"/><path d="m122.517 410.722c5.859 5.859 15.351 5.86 21.211 0 5.859-5.859 5.859-15.352 0-21.211l-10.613-10.613-21.211 21.211z"/></g><path d="m164.968 347.045-.073.073c.013-.013.031-.016.044-.029s.016-.031.029-.044z" fill="#dfe7f4"/></g></g></svg>