<svg id="Layer_3" enable-background="new 0 0 64 64" height="512" viewBox="0 0 64 64" width="512" xmlns="http://www.w3.org/2000/svg"><g><path d="m17 31-6.52-.931c-.319-.046-.642-.069-.965-.069h-.687c-1.811 0-3.547.719-4.828 2-1.281 1.281-2 3.017-2 4.828v1.343c0 1.812.719 3.548 2 4.829 3.842 3.842 9.052 6 14.485 6 7.583 0 15.072-1.674 21.933-4.903l.903-.425c3.771-1.775 7.744-3.085 11.831-3.903l7.76-1.552c.633-.126 1.088-.681 1.088-1.325 0-.541-.322-1.03-.819-1.243l-.899-.385c-3.508-1.504-7.185-2.581-10.95-3.208l-.332-.056" fill="#d23f34"/><path d="m49.332 32.055-.332-.055-32-1-6.52-.931c-.319-.046-.642-.069-.965-.069h-.459c-.033.274-.056.55-.056.828v1.343c0 1.811.719 3.548 2 4.828 3.842 3.842 9.052 6 14.485 6 7.583 0 15.072-1.674 21.933-4.903l.903-.425c3.056-1.438 6.248-2.555 9.522-3.368-2.76-1.006-5.608-1.764-8.511-2.248z" fill="#b52f28"/><path d="m26.75 16.3c-.495-.198-1.024-.3-1.557-.3-2.316 0-4.193 1.877-4.193 4.193 0 3.127-.977 6.175-2.794 8.719l-.2.28c-1.322 1.851-2.236 3.961-2.682 6.191l-.324 1.617c1.268 1.902 3.312 3.146 5.583 3.398l.019.002c3.586.398 7.206.374 10.785-.074l3.753-.469c4.557-.57 9.031-1.672 13.331-3.284.889-.333 1.421-1.246 1.273-2.185l-2.212-14.012c-.306-1.944-1.982-3.376-3.95-3.376h-1.582c-2.66 0-5.314.263-7.922.784l-2.155.431c-.085.017-.17.034-.256.051z" fill="#b52f28"/><path d="m45.763 21.694c-.307-1.944-1.983-3.376-3.951-3.376h-1.582c-2.66 0-5.314.263-7.922.784l-2.155.431c-.085.017-.17.034-.256.051l-4.917-1.967c-.495-.198-1.024-.3-1.557-.3-.534 0-1.04.11-1.509.291-.564.715-.914 1.605-.914 2.585 0 3.127-.977 6.175-2.794 8.719l-.2.28c-1.322 1.851-2.236 3.961-2.682 6.191l-.324 1.617c1.268 1.902 3.312 3.146 5.583 3.398l.019.002c3.586.398 7.206.374 10.785-.074l3.753-.469c4.336-.542 8.592-1.581 12.699-3.068.14-.333.195-.705.135-1.082z" fill="#d23f34"/><path d="m39.138 34.63c-3.411.909-6.925 1.37-10.455 1.37-3.77 0-7.522-.525-11.147-1.561l-1.536-.439h-.323c-.134.456-.26.915-.354 1.383l-.323 1.617c1.268 1.902 3.312 3.146 5.583 3.398l.019.002c3.586.398 7.206.374 10.785-.074l3.753-.469c4.557-.57 9.031-1.672 13.331-3.284.889-.333 1.421-1.246 1.273-2.185l-.376-2.388h-.368z" fill="#f6b940"/><path d="m28.683 36c-3.77 0-7.522-.525-11.147-1.561l-1.536-.439h-.323c-.134.456-.26.915-.354 1.383l-.323 1.617c.093.139.198.266.298.398 1.036.711 2.237 1.176 3.515 1.318l.019.002c3.586.398 7.206.374 10.785-.074l3.753-.469c4.557-.57 9.031-1.672 13.331-3.284.889-.333 1.421-1.246 1.273-2.185l-.066-.416-8.772 2.339c-3.409.91-6.923 1.371-10.453 1.371z" fill="#fad85d"/></g></svg>