<svg id="Layer_1" height="512" viewBox="0 0 128 128" width="512" xmlns="http://www.w3.org/2000/svg" data-name="Layer 1"><path d="m29.75 60.125h-4.417a1.75 1.75 0 1 1 0-3.5h4.417a1.75 1.75 0 0 1 0 3.5z" fill="#444"/><path d="m29.75 98.5h-4.417a1.75 1.75 0 1 1 0-3.5h4.417a1.75 1.75 0 0 1 0 3.5z" fill="#444"/><path d="m102.667 60.125h-4.417a1.75 1.75 0 0 1 0-3.5h4.417a1.75 1.75 0 0 1 0 3.5z" fill="#444"/><path d="m102.667 98.5h-4.417a1.75 1.75 0 0 1 0-3.5h4.417a1.75 1.75 0 0 1 0 3.5z" fill="#444"/><path d="m17 17h8.333v94h-8.333z" fill="#a24f41"/><path d="m102.667 17h8.333v94h-8.333z" fill="#e7376e"/><path d="m64 103.333h-34.25v-52.333s13.994-1.375 16.478-10.559c2.714-10.041 17.772-8.191 17.772-8.191z" fill="#e7376e"/><path d="m64 103.333h34.25v-52.333s-13.994-1.375-16.478-10.559c-2.714-10.041-17.772-8.191-17.772-8.191z" fill="#e7376e"/><g fill="#fedd55"><path d="m36.188 61.5h21.5v4.875h-21.5z"/><path d="m36.188 73.982h21.5v4.875h-21.5z"/><path d="m36.188 86.464h21.5v4.875h-21.5z"/><path d="m70.312 61.5h21.5v4.875h-21.5z"/><path d="m70.312 73.982h21.5v4.875h-21.5z"/><path d="m70.312 86.464h21.5v4.875h-21.5z"/></g></svg>